<svg width="24" height="24" viewBox="0 0 24 24" fill="none" xmlns="http://www.w3.org/2000/svg">
<g id="216492_delete_user_icon 1">
<g id="Group">
<path id="Vector" d="M21 14H15C14.447 14 14 13.552 14 13C14 12.448 14.447 12 15 12H21C21.553 12 22 12.448 22 13C22 13.552 21.553 14 21 14Z" fill="url(#paint0_linear_81_3)"/>
</g>
<g id="Group_2">
<path id="Vector_2" d="M9 6C10.654 6 12 7.346 12 9C12 10.654 10.654 12 9 12C7.346 12 6 10.654 6 9C6 7.346 7.346 6 9 6ZM9 4C6.236 4 4 6.238 4 9C4 11.762 6.236 14 9 14C11.764 14 14 11.762 14 9C14 6.238 11.764 4 9 4Z" fill="url(#paint1_linear_81_3)"/>
</g>
<g id="Group_3">
<g id="Group_4">
<path id="Vector_3" d="M9 17C11.021 17 12.301 17.771 12.783 18.445C12.1 18.705 10.814 19 9 19C7.016 19 5.794 18.695 5.182 18.458C5.641 17.743 6.959 17 9 17ZM9 15C5.25 15 3 17 3 19C3 20 5.25 21 9 21C12.518 21 15 20 15 19C15 17 12.646 15 9 15Z" fill="url(#paint2_linear_81_3)"/>
</g>
</g>
</g>
<defs>
<linearGradient id="paint0_linear_81_3" x1="18" y1="12" x2="18" y2="14" gradientUnits="userSpaceOnUse">
<stop offset="0.729167" stop-color="#B30303"/>
<stop offset="1" stop-color="#4B0707"/>
</linearGradient>
<linearGradient id="paint1_linear_81_3" x1="9" y1="4" x2="9" y2="14" gradientUnits="userSpaceOnUse">
<stop offset="0.729167" stop-color="#B30303"/>
<stop offset="1" stop-color="#4B0707"/>
</linearGradient>
<linearGradient id="paint2_linear_81_3" x1="9" y1="15" x2="9" y2="21" gradientUnits="userSpaceOnUse">
<stop offset="0.729167" stop-color="#B30303"/>
<stop offset="1" stop-color="#4B0707"/>
</linearGradient>
</defs>
</svg>
