<svg width="30" height="30" viewBox="0 0 30 30" fill="none" xmlns="http://www.w3.org/2000/svg">
  <g id="Layer 2">
    <path id="Vector"
      d="M22.7397 29.9998H7.28333C6.00382 30.0093 4.74503 29.6497 3.63621 28.9578C2.52739 28.2659 1.60849 27.2667 0.973875 26.0628C0.336166 24.8839 0 23.5421 0 22.1757C0 20.8092 0.336166 19.4675 0.973875 18.2886L8.73669 3.90271C9.37692 2.71501 10.2931 1.72975 11.394 1.04502C12.4949 0.360299 13.7422 0 15.0115 0C16.2809 0 17.5282 0.360299 18.6291 1.04502C19.73 1.72975 20.6462 2.71501 21.2864 3.90271L29.0261 18.2886C29.6638 19.4675 30 20.8092 30 22.1757C30 23.5421 29.6638 24.8839 29.0261 26.0628C28.3934 27.263 27.4782 28.2598 26.3738 28.9515C25.2694 29.6431 24.0153 30.0049 22.7397 29.9998ZM15.0115 2.50287C14.1456 2.49447 13.2932 2.73535 12.5413 3.20089C11.7894 3.66643 11.1651 4.33994 10.7322 5.15257L2.99244 19.551C2.55934 20.3483 2.33095 21.2567 2.33095 22.1819C2.33095 23.1072 2.55934 24.0155 2.99244 24.8129C3.42097 25.6352 4.04497 26.3182 4.79957 26.7908C5.55416 27.2633 6.4118 27.5083 7.28333 27.5001H22.7397C23.6132 27.5105 24.4733 27.2667 25.2301 26.794C25.9869 26.3213 26.6127 25.6371 27.0422 24.8129C27.4753 24.0155 27.7037 23.1072 27.7037 22.1819C27.7037 21.2567 27.4753 20.3483 27.0422 19.551L19.2909 5.15257C18.8579 4.33994 18.2336 3.66643 17.4818 3.20089C16.7299 2.73535 15.8775 2.49447 15.0115 2.50287Z"
      fill="url(#paint0_linear_58_11)" fill-opacity="0.97" />
    <path id="Vector_2"
      d="M15.0117 10.002C14.913 10.0011 14.8156 10.0255 14.7273 10.0733C14.6391 10.1211 14.5626 10.1909 14.5041 10.277C14.4409 10.359 14.3972 10.4567 14.3771 10.5613C14.357 10.666 14.361 10.7744 14.3888 10.8769L15.0117 13.6016L15.6345 10.8769C15.6623 10.7744 15.6663 10.666 15.6462 10.5613C15.6261 10.4567 15.5825 10.359 15.5192 10.277C15.4607 10.1909 15.3842 10.1211 15.296 10.0733C15.2078 10.0255 15.1103 10.0011 15.0117 10.002Z"
      fill="url(#paint1_linear_58_11)" fill-opacity="0.97" />
    <path id="Vector_3"
      d="M17.3187 8.75217C17.0421 8.37703 16.6911 8.07416 16.2918 7.86602C15.8924 7.65788 15.455 7.5498 15.0118 7.5498C14.5687 7.5498 14.1312 7.65788 13.7319 7.86602C13.3325 8.07416 12.9815 8.37703 12.7049 8.75217C12.4263 9.13239 12.2333 9.57772 12.1412 10.0529C12.0491 10.528 12.0604 11.0198 12.1743 11.4894L13.8584 19.051C13.9209 19.3213 14.0649 19.5612 14.2676 19.7326C14.4703 19.904 14.7201 19.997 14.9772 19.997C15.2343 19.997 15.4841 19.904 15.6868 19.7326C15.8895 19.5612 16.0336 19.3213 16.0961 19.051L17.8378 11.4769C17.9514 11.0101 17.9636 10.5212 17.8736 10.0485C17.7835 9.57573 17.5936 9.13203 17.3187 8.75217ZM15.6347 10.8769L15.0118 13.6016L14.3889 10.8769C14.3612 10.7744 14.3571 10.666 14.3773 10.5613C14.3974 10.4567 14.441 10.359 14.5043 10.277C14.5634 10.1916 14.64 10.1223 14.7281 10.0746C14.8162 10.0269 14.9133 10.002 15.0118 10.002C15.1103 10.002 15.2074 10.0269 15.2955 10.0746C15.3836 10.1223 15.4602 10.1916 15.5193 10.277C15.5826 10.359 15.6262 10.4567 15.6464 10.5613C15.6665 10.666 15.6625 10.7744 15.6347 10.8769Z"
      fill="url(#paint2_linear_58_11)" fill-opacity="0.97" />
    <path id="Vector_4"
      d="M15.0119 25.0003C15.9675 25.0003 16.7421 24.1609 16.7421 23.1255C16.7421 22.0901 15.9675 21.2507 15.0119 21.2507C14.0564 21.2507 13.2817 22.0901 13.2817 23.1255C13.2817 24.1609 14.0564 25.0003 15.0119 25.0003Z"
      fill="url(#paint3_linear_58_11)" fill-opacity="0.97" />
  </g>
  <defs>
    <linearGradient id="paint0_linear_58_11" x1="15" y1="0" x2="15" y2="30"
      gradientUnits="userSpaceOnUse">
      <stop stop-color="#4E0707" />
      <stop offset="0.526042" stop-color="#B30303" />
      <stop offset="1" stop-color="#4B0707" />
    </linearGradient>
    <linearGradient id="paint1_linear_58_11" x1="15.0117" y1="10.002" x2="15.0117" y2="13.6016"
      gradientUnits="userSpaceOnUse">
      <stop stop-color="#4E0707" />
      <stop offset="0.526042" stop-color="#B30303" />
      <stop offset="1" stop-color="#4B0707" />
    </linearGradient>
    <linearGradient id="paint2_linear_58_11" x1="15.0064" y1="7.5498" x2="15.0064" y2="19.997"
      gradientUnits="userSpaceOnUse">
      <stop stop-color="#4E0707" />
      <stop offset="0.526042" stop-color="#B30303" />
      <stop offset="1" stop-color="#4B0707" />
    </linearGradient>
    <linearGradient id="paint3_linear_58_11" x1="15.0119" y1="21.2507" x2="15.0119" y2="25.0003"
      gradientUnits="userSpaceOnUse">
      <stop stop-color="#4E0707" />
      <stop offset="0.526042" stop-color="#B30303" />
      <stop offset="1" stop-color="#4B0707" />
    </linearGradient>
  </defs>
</svg>
