<svg width="30" height="30" viewBox="0 0 30 30" fill="none" xmlns="http://www.w3.org/2000/svg">
  <g id="Group">
    <path id="Vector"
      d="M29.7497 1.81783C29.4161 1.48431 28.9156 1.48431 28.5819 1.81783L14.9022 15.4086L9.56384 9.48872C9.23019 9.1552 8.72971 9.1552 8.39606 9.40534C8.06241 9.73885 8.06241 10.2391 8.31265 10.5726C8.97995 11.3231 9.64725 12.0735 10.3146 12.7405C11.3989 13.9078 12.4833 15.0751 13.4842 16.2424C13.6511 16.4092 13.8179 16.576 13.9013 16.7427C14.1515 16.9929 14.4018 17.4097 14.8188 17.4097C15.0691 17.4097 15.2359 17.3264 15.4027 17.1596L29.7497 2.98514C30.0834 2.65162 30.0834 2.15134 29.7497 1.81783Z"
      fill="url(#paint0_linear_68_5)" />
    <g id="Group_2">
      <path id="Vector_2"
        d="M14.9024 30C13.4009 30 11.8161 29.7499 10.3147 29.2496C6.47769 27.9989 3.39143 25.4141 1.63976 21.8288C-2.11381 14.4915 0.805634 5.40312 8.06254 1.65105C11.8995 -0.350048 16.4038 -0.516806 20.4076 1.0674C21.1583 1.31754 21.8256 1.73443 22.4929 2.06795C22.91 2.31809 22.9934 2.81836 22.7432 3.23526C22.4929 3.65216 21.9924 3.73554 21.5754 3.4854C20.9915 3.15188 20.4076 2.81836 19.7403 2.56823C16.1536 1.15078 12.2332 1.31754 8.81325 3.0685C2.30706 6.40367 -0.278731 14.4915 3.05778 20.995C4.64262 24.1635 7.39523 26.4981 10.8152 27.582C14.1517 28.6659 17.7384 28.3324 20.8247 26.7482C26.6636 23.7466 29.4162 16.7427 27.2474 10.4893C27.0806 10.0724 27.3309 9.57208 27.7479 9.40532C28.165 9.23857 28.6655 9.4887 28.8323 9.9056C31.2513 16.9095 28.165 24.8305 21.5754 28.1657C19.4901 29.4163 17.2379 30 14.9024 30Z"
        fill="url(#paint1_linear_68_5)" />
    </g>
  </g>
  <defs>
    <linearGradient id="paint0_linear_68_5" x1="19.0671" y1="1.56769" x2="19.0671" y2="17.4097"
      gradientUnits="userSpaceOnUse">
      <stop offset="0.1875" stop-color="#085F06" />
      <stop offset="0.494792" stop-color="#05E900" />
      <stop offset="0.828125" stop-color="#046802" />
    </linearGradient>
    <linearGradient id="paint1_linear_68_5" x1="14.826" y1="0" x2="14.826" y2="30"
      gradientUnits="userSpaceOnUse">
      <stop offset="0.1875" stop-color="#085F06" />
      <stop offset="0.494792" stop-color="#05E900" />
      <stop offset="0.828125" stop-color="#046802" />
    </linearGradient>
  </defs>
</svg>
